<?xml version="1.0" standalone="no"?>
<!DOCTYPE svg PUBLIC "-//W3C//DTD SVG 20010904//EN"
 "http://www.w3.org/TR/2001/REC-SVG-20010904/DTD/svg10.dtd">
<svg version="1.0" xmlns="http://www.w3.org/2000/svg"
 width="48.000000pt" height="48.000000pt" viewBox="0 0 48.000000 48.000000"
 preserveAspectRatio="xMidYMid meet">

<g transform="translate(0.000000,48.000000) scale(0.100000,-0.100000)"
fill="#000000" stroke="none">
<path d="M142 444 c-115 -57 -161 -186 -108 -299 56 -121 201 -169 322 -107
49 25 68 45 93 102 39 85 16 206 -50 267 -70 64 -173 79 -257 37z m218 -139
c0 -8 5 -15 10 -15 6 0 10 7 10 15 0 23 27 18 33 -6 3 -12 0 -30 -6 -40 -9
-14 -9 -24 -1 -37 9 -14 8 -23 -6 -40 -21 -25 -40 -29 -40 -7 0 8 -4 15 -10
15 -5 0 -10 -7 -10 -15 0 -8 -6 -15 -14 -15 -17 0 -28 52 -14 61 6 4 8 20 5
38 -4 18 -2 31 3 31 6 0 10 7 10 15 0 8 7 15 15 15 8 0 15 -7 15 -15z m-260
-41 c0 -20 -30 -30 -40 -13 -11 17 7 40 26 32 8 -3 14 -12 14 -19z m153 -17
c30 0 34 -9 12 -27 -12 -10 -21 -10 -41 -1 -15 6 -35 9 -45 6 -22 -7 -25 5 -6
24 7 7 21 9 32 5 11 -4 32 -7 48 -7z m-153 -67 c0 -21 -33 -29 -45 -10 -9 15
4 30 26 30 12 0 19 -7 19 -20z"/>
<path d="M357 263 c-11 -10 -8 -43 3 -43 6 0 10 11 10 25 0 26 -2 29 -13 18z"/>
</g>
</svg>
